<?xml version="1.0" encoding="utf-8"?>
<!-- Generator: Adobe Illustrator 26.0.3, SVG Export Plug-In . SVG Version: 6.00 Build 0)  -->
<svg version="1.0" id="katman_1" xmlns="http://www.w3.org/2000/svg" xmlns:xlink="http://www.w3.org/1999/xlink" x="0px" y="0px"
	 viewBox="0 0 600 450" style="enable-background:new 0 0 600 450;" xml:space="preserve">
<style type="text/css">
	.st0{fill:#2C2355;}
	.st1{fill:#F39422;}
	.st2{fill:url(#SVGID_1_);}
	.st3{fill:url(#SVGID_00000057123192507860559310000017349662078926199186_);}
	.st4{fill:url(#SVGID_00000173846101349386669210000018168037971070328763_);}
	.st5{fill:#FFFFFF;}
</style>
<g>
	<path class="st0" d="M248.9,309.5h-34c4.5,15.4,12.9,29.2,25.1,41.4c19.5,19.4,42.9,29.1,70.3,29.1c5.3,0,10.7-0.4,15.9-1.2
		c20.6-3.1,38.7-12.4,54.2-27.9c12.3-12.2,20.7-26,25.2-41.4H248.9z"/>
	<path class="st0" d="M230.1,263.5h-17.8c-0.7,3.9-1.1,7.9-1.3,11.9h198.4c-0.2-4-0.6-8-1.3-11.9 M211.1,286.5c0.2,4,0.6,8,1.3,11.9
		h195.8c0.7-3.9,1.1-7.9,1.3-11.9"/>
	<path class="st0" d="M405.7,252.4c-4.5-15.4-12.9-29.3-25.3-41.6c-15.4-15.4-33.5-24.6-54-27.7c-5.3-0.8-10.7-1.2-16.1-1.2
		c-27.4,0-50.8,9.6-70.3,28.9c-12.2,12.3-20.6,26.1-25.1,41.6"/>
	<path class="st1" d="M205.2,281c0-52.2,39.4-95.7,90.6-103.3c-1.3,0-2.5-0.1-3.8-0.1c-57.5,0-104.1,46.3-104.1,103.4
		c0,57.1,46.6,103.4,104.1,103.4c1.3,0,2.6,0,3.8-0.1C244.5,376.7,205.2,333.2,205.2,281z"/>
	
		<linearGradient id="SVGID_1_" gradientUnits="userSpaceOnUse" x1="6.0378" y1="395.2916" x2="6.0378" y2="418.5297" gradientTransform="matrix(72.583 0 0 -6.411 -127.9439 2927.6902)">
		<stop  offset="0.3033" style="stop-color:#473788"/>
		<stop  offset="0.872" style="stop-color:#2C2355"/>
	</linearGradient>
	<path class="st2" d="M377.8,275.5c-0.3-4-1-8-2.1-11.9H244.8c-1,3.9-1.7,7.9-2.1,11.9L377.8,275.5L377.8,275.5z"/>
	
		<linearGradient id="SVGID_00000131366797292149541320000008395046435861751440_" gradientUnits="userSpaceOnUse" x1="6.0379" y1="397.2141" x2="6.0379" y2="420.4523" gradientTransform="matrix(72.582 0 0 -6.41 -127.9419 2939.6052)">
		<stop  offset="0.3033" style="stop-color:#473788"/>
		<stop  offset="0.872" style="stop-color:#2C2355"/>
	</linearGradient>
	<path style="fill:url(#SVGID_00000131366797292149541320000008395046435861751440_);" d="M377.8,286.5H242.8
		c0.3,4.1,1,8.1,2.1,11.9h130.9C376.8,294.6,377.5,290.6,377.8,286.5z"/>
	
		<linearGradient id="SVGID_00000084506553637231819630000012661464958548064421_" gradientUnits="userSpaceOnUse" x1="6.4883" y1="435.1448" x2="6.4883" y2="442.2505" gradientTransform="matrix(66.028 0 0 -20.966 -118.1109 9516.7246)">
		<stop  offset="0.3033" style="stop-color:#473788"/>
		<stop  offset="0.8631" style="stop-color:#2C2355"/>
	</linearGradient>
	<path style="fill:url(#SVGID_00000084506553637231819630000012661464958548064421_);" d="M310.3,348.5c27.2,0,50.6-16,61.4-39
		H248.9C259.7,332.6,283.1,348.5,310.3,348.5z"/>
	<path class="st5" d="M232.8,286.5h176.6c0.1-1.8,0.1-3.5,0.1-5.3c0-1.9-0.1-3.8-0.2-5.8H211.1c-0.1,1.9-0.2,3.8-0.2,5.8
		c0,1.8,0.1,3.6,0.1,5.3L232.8,286.5L232.8,286.5z M248.5,252.4h-33.6c-1.1,3.6-1.8,7.3-2.5,11.1h195.2c-0.7-3.7-1.6-7.4-2.7-11.1
		 M394.8,298.5H212.4c0.7,3.8,1.4,7.5,2.5,11.1h190.7c1.1-3.6,2-7.3,2.6-11.1H394.8L394.8,298.5z"/>
	<path class="st1" d="M283.4,66.4h7.3v9.3h-7.3V66.4z"/>
	<path class="st0" d="M221.7,104.5v3.6h-33.8c0.3,5.1,1.8,8.9,4.6,11.6c2.7,2.7,6.5,4,11.4,4c2.8,0,5.6-0.3,8.2-1
		c2.7-0.7,5.4-1.8,7.9-3.1v7c-2.6,1.1-5.3,2-8.1,2.6c-2.8,0.6-5.6,0.9-8.4,0.9c-7.1,0-12.8-2.1-17-6.2c-4.2-4.2-6.3-9.8-6.3-16.9
		c0-7.3,2-13.1,5.9-17.4c4-4.3,9.3-6.5,16-6.5c6,0,10.8,1.9,14.3,5.8C220,92.6,221.7,97.9,221.7,104.5L221.7,104.5z M214.4,102.4
		c-0.1-4-1.2-7.2-3.4-9.6s-5.1-3.6-8.7-3.6c-4.1,0-7.4,1.2-9.8,3.5c-2.5,2.3-3.9,5.6-4.3,9.8L214.4,102.4L214.4,102.4z M259.6,85.7
		v6.9c-2-1.1-4.1-2-6.3-2.6c-2.1-0.6-4.2-0.9-6.3-0.9c-4.8,0-8.5,1.5-11.1,4.5c-2.6,3-4,7.3-4,12.7c0,5.5,1.3,9.7,4,12.7
		c2.6,3,6.3,4.5,11.1,4.5c2.1,0,4.2-0.3,6.3-0.9c2.2-0.6,4.3-1.5,6.3-2.6v6.8c-2,1-4.2,1.7-6.4,2.2c-2.3,0.5-4.7,0.7-7,0.7
		c-6.7,0-12.1-2.1-16.1-6.4c-4-4.2-6-9.9-6-17.1c0-7.3,2-13,6-17.2c4-4.2,9.5-6.3,16.5-6.3c2.3,0,4.5,0.2,6.6,0.7
		C255.5,84.1,257.6,84.8,259.6,85.7 M266.8,66.4h7.4v62.2h-7.4V66.4z M283.4,83.6h7.3v44.7h-7.3V83.6z M306.6,122v23.7h-7.4V84h7.4
		v6.8c1.5-2.7,3.5-4.6,5.9-5.9c2.4-1.3,5.2-1.9,8.4-1.9c5.4,0,9.8,2.2,13.2,6.5c3.4,4.3,5.1,10,5.1,17c0,7-1.7,12.7-5.1,17
		c-3.4,4.3-7.8,6.5-13.2,6.5c-3.3,0-6.1-0.6-8.4-1.9C310.1,126.7,308.1,124.7,306.6,122 M331.6,106.4c0-5.4-1.1-9.6-3.3-12.7
		c-2.2-3.1-5.3-4.6-9.2-4.6c-3.9,0-6.9,1.5-9.2,4.6c-2.2,3.1-3.3,7.3-3.3,12.7c0,5.4,1.1,9.6,3.3,12.7c2.2,3.1,5.3,4.6,9.2,4.6
		s6.9-1.5,9.2-4.6C330.5,116.1,331.6,111.8,331.6,106.4 M374.3,85.3v6.9c-2.1-1.1-4.2-1.9-6.5-2.4c-2.3-0.5-4.6-0.8-7-0.8
		c-3.6,0-6.4,0.6-8.2,1.7c-1.8,1.1-2.7,2.8-2.7,5c0,1.7,0.7,3,2,4c1.3,1,3.9,1.9,7.9,2.8l2.5,0.6c5.2,1.1,8.9,2.7,11.1,4.7
		c2.2,2,3.3,4.9,3.3,8.5c0,4.2-1.6,7.4-4.9,9.9c-3.3,2.4-7.8,3.6-13.6,3.6c-2.4,0-4.9-0.2-7.5-0.7c-2.8-0.5-5.5-1.2-8.2-2.1v-7.6
		c2.7,1.4,5.4,2.5,8,3.2s5.2,1.1,7.8,1.1c3.5,0,6.1-0.6,8-1.8c1.9-1.2,2.8-2.9,2.8-5c0-2-0.7-3.5-2-4.6c-1.3-1.1-4.3-2.1-8.8-3.1
		l-2.6-0.6c-4.6-1-7.8-2.4-9.9-4.4c-2-2-3-4.7-3-8.2c0-4.2,1.5-7.5,4.5-9.7c3-2.3,7.2-3.4,12.7-3.4c2.7,0,5.3,0.2,7.7,0.6
		C370,83.9,372.2,84.5,374.3,85.3 M420,104.5v3.6h-33.8c0.3,5.1,1.8,8.9,4.6,11.6c2.7,2.7,6.5,4,11.4,4c2.8,0,5.6-0.3,8.2-1
		c2.7-0.7,5.4-1.8,7.9-3.1v7c-2.6,1.1-5.3,2-8.1,2.6c-2.8,0.6-5.6,0.9-8.4,0.9c-7.1,0-12.8-2.1-17-6.2c-4.2-4.2-6.3-9.8-6.3-16.9
		c0-7.3,2-13.1,5.9-17.4c4-4.3,9.3-6.5,16-6.5c6,0,10.8,1.9,14.3,5.8C418.2,92.6,420,97.9,420,104.5z M412.6,102.4
		c-0.1-4-1.2-7.2-3.4-9.6c-2.2-2.4-5.1-3.6-8.7-3.6c-4.1,0-7.4,1.2-9.8,3.5c-2.5,2.3-3.9,5.6-4.3,9.8L412.6,102.4L412.6,102.4z"/>
</g>
</svg>
